<svg height="200" width="200" xmlns="http://www.w3.org/2000/svg">
	<rect height="200" width="200" style="fill:rgb(41, 98, 101)" />
	<polygon points="93.20454545454197,45.09090909090804 121.1093749999983,-10.718750000000709 132.61702127659575,18.872340425531913 94.59405940594061,48.74752475247523" style="fill:rgb(71, 28, 75, 0.18486331321530575); stroke:rgb(47, 34, 66); stroke-width:1" />
	<polygon points="100.78037383177569,181.52803738317755 79.66508538899431,162.0370018975332 81.76829268292683,149.7682926829268 91.6254752851711,148.39923954372625 109.17567567567568,155.82432432432432 117.99077490774908,183.24907749077497" style="fill:rgb(71, 28, 75, 0.2205614712063892); stroke:rgb(47, 34, 66); stroke-width:1" />
	<polygon points="109.98076923076921,120.42307692307692 102.12499999999861,88.9999999999991 120.1470588235294,113.02941176470588" style="fill:rgb(71, 28, 75, 0.4737425727276951); stroke:rgb(47, 34, 66); stroke-width:1" />
	<polygon points="223.90690505548713,27.158446362515416 206.38683602771366,31.100461893764425 165.1779252110977,14.132086851628461 166.5232558139535,10.000000000000009 203.53124999999997,10.0" style="fill:rgb(71, 28, 75, 0.38934874921423485); stroke:rgb(47, 34, 66); stroke-width:1" />
	<polygon points="155.25352112676057,153.86854460093898 162.64102564102564,150.03798670465335 195.41221374045801,180.38167938931298 180.91666666666674,202.12499999999997 152.32500000000027,159.23749999999995" style="fill:rgb(71, 28, 75, 0.3349983068298949); stroke:rgb(47, 34, 66); stroke-width:1" />
	<polygon points="76.6923076923077,144.69230769230768 47.50515463917527,153.4484536082474 37.31260096930533,139.0589660743134 69.63984168865436,119.30343007915567" style="fill:rgb(71, 28, 75, 0.20437016180047313); stroke:rgb(47, 34, 66); stroke-width:1" />
	<polygon points="159.40577507598783,66.50607902735564 157.09023066485753,60.98439620081411 159.86774193548388,45.11290322580645 181.64112291350528,48.31487101669195 192.8103448275862,69.63793103448276 167.23949579831933,74.75210084033613" style="fill:rgb(71, 28, 75, 0.06508179650924079); stroke:rgb(47, 34, 66); stroke-width:1" />
	<polygon points="70.53973509933775,114.01655629139074 104.31818181818183,128.09090909090912 91.6254752851711,148.39923954372625 81.76829268292683,149.7682926829268 76.6923076923077,144.69230769230768 69.63984168865436,119.30343007915567" style="fill:rgb(71, 28, 75, 0.4805916129706353); stroke:rgb(47, 34, 66); stroke-width:1" />
	<polygon points="154.74460431654677,26.24820143884892 158.33157894736843,42.55263157894737 92.80894308943081,63.02845528455285 94.59405940594061,48.74752475247523 132.61702127659575,18.872340425531913" style="fill:rgb(71, 28, 75, 0.037141661026507844); stroke:rgb(47, 34, 66); stroke-width:1" />
	<polygon points="70.53973509933775,114.01655629139074 69.63984168865436,119.30343007915567 37.31260096930533,139.0589660743134 3.6322418136020094,126.54911838790935 6.03608247422687,124.4123711340206 69.62734082397004,102.1554307116105" style="fill:rgb(71, 28, 75, 0.16329761175617152); stroke:rgb(47, 34, 66); stroke-width:1" />
	<polygon points="223.90690505548713,27.158446362515416 837.8571428579834,99.99999999982884 494.23619631905694,115.92944785276697 292.0937499999995,107.84375000000027 202.5548780487805,76.38414634146342 192.8103448275862,69.63793103448276 181.64112291350528,48.31487101669195 206.38683602771366,31.100461893764425" style="fill:rgb(71, 28, 75, 0.2851646035768123); stroke:rgb(47, 34, 66); stroke-width:1" />
	<polygon points="152.32500000000027,159.23749999999995 180.91666666666674,202.12499999999997 144.07245337159262,267.43974175035896 130.6945945945946,193.34698544698543" style="fill:rgb(71, 28, 75, 0.049951526351514175); stroke:rgb(47, 34, 66); stroke-width:1" />
	<polygon points="192.8103448275862,69.63793103448276 167.23949579831933,74.75210084033613 159.40577507598783,66.50607902735564 157.09023066485753,60.98439620081411 159.86774193548388,45.11290322580645 181.64112291350528,48.31487101669195" style="fill:rgb(71, 28, 75, 0.2392384482880513); stroke:rgb(47, 34, 66); stroke-width:1" />
	<polygon points="80.54195011337866,77.77551020408158 106.53333333333333,124.56 105.87837837837837,127.3108108108108 104.31818181818183,128.09090909090912 70.53973509933775,114.01655629139074 69.62734082397004,102.1554307116105 74.76475195822455,83.21122715404701 77.74733096085409,79.49822064056941" style="fill:rgb(71, 28, 75, 0.34378291875456746); stroke:rgb(47, 34, 66); stroke-width:1" />
	<polygon points="37.31260096930533,139.0589660743134 47.50515463917527,153.4484536082474 46.79292929292928,160.57070707070707 32.93478260869565,161.95652173913044 -13.356783919597614,131.0954773869344 3.6322418136020094,126.54911838790935" style="fill:rgb(71, 28, 75, 0.32708878457281515); stroke:rgb(47, 34, 66); stroke-width:1" />
	<polygon points="92.67259786476872,63.44839857651241 91.9776119402985,67.99253731343283 90.27764127764128,70.04422604422606 80.54195011337866,77.77551020408158 77.74733096085409,79.49822064056941 27.151162790697672,45.76744186046512 41.662790697674424,29.44186046511628" style="fill:rgb(71, 28, 75, 0.31242151819275127); stroke:rgb(47, 34, 66); stroke-width:1" />
	<polygon points="94.59405940594061,48.74752475247523 93.20454545454197,45.09090909090804 121.1093749999983,-10.718750000000709 132.61702127659575,18.872340425531913" style="fill:rgb(71, 28, 75, 0.05803074359994009); stroke:rgb(47, 34, 66); stroke-width:1" />
	<polygon points="92.80894308943081,63.02845528455285 94.59405940594061,48.74752475247523 132.61702127659575,18.872340425531913 154.74460431654677,26.24820143884892 158.33157894736843,42.55263157894737" style="fill:rgb(71, 28, 75, 0.005844107920629338); stroke:rgb(47, 34, 66); stroke-width:1" />
	<polygon points="159.86774193548388,45.11290322580645 158.33157894736843,42.55263157894737 154.74460431654677,26.24820143884892 165.1779252110977,14.132086851628461 206.38683602771366,31.100461893764425 181.64112291350528,48.31487101669195" style="fill:rgb(71, 28, 75, 0.1272427868676022); stroke:rgb(47, 34, 66); stroke-width:1" />
	<polygon points="202.5548780487805,76.38414634146342 192.8103448275862,69.63793103448276 181.64112291350528,48.31487101669195 206.38683602771366,31.100461893764425 223.90690505548713,27.158446362515416 837.8571428579834,99.99999999982884 494.23619631905694,115.92944785276697 292.0937499999995,107.84375000000027" style="fill:rgb(71, 28, 75, 0.4277808451138516); stroke:rgb(47, 34, 66); stroke-width:1" />
	<polygon points="100.00000000014187,-893.399999996362 97.50000000007996,-817.900000001958 33.49999999999721,-126.70000000002291 12.500000000000114,-30.100000000000218 -15.759259259259126,37.72222222222215 -22.75287356321836,45.79177718832894 -296.80555555556816,100.00000000000028 -506.80555555556816,100.00000000000028" style="fill:rgb(71, 28, 75, 0.3636982205899599); stroke:rgb(47, 34, 66); stroke-width:1" />
	<polygon points="32.93478260869565,161.95652173913044 13.83333333333338,185.83333333333331 -47.39403973509937,137.7261116367077 -13.356783919597614,131.0954773869344" style="fill:rgb(71, 28, 75, 0.3984606488470207); stroke:rgb(47, 34, 66); stroke-width:1" />
	<polygon points="93.20454545454197,45.09090909090804 78.12946428571429,8.910714285714288 78.17661691542285,7.967661691542287 97.5000000000001,-79.73076923076924 121.1093749999983,-10.718750000000709" style="fill:rgb(71, 28, 75, 0.3083710687098485); stroke:rgb(47, 34, 66); stroke-width:1" />
	<polygon points="76.6923076923077,144.69230769230768 69.63984168865436,119.30343007915567 70.53973509933775,114.01655629139074 104.31818181818183,128.09090909090912 91.6254752851711,148.39923954372625 81.76829268292683,149.7682926829268" style="fill:rgb(71, 28, 75, 0.2809966106969197); stroke:rgb(47, 34, 66); stroke-width:1" />
	<polygon points="167.23949579831933,74.75210084033613 159.40577507598783,66.50607902735564 157.09023066485753,60.98439620081411 159.86774193548388,45.11290322580645 181.64112291350528,48.31487101669195 192.8103448275862,69.63793103448276" style="fill:rgb(71, 28, 75, 0.16660654946951198); stroke:rgb(47, 34, 66); stroke-width:1" />
	<polygon points="74.76475195822455,83.21122715404701 30.695460277427493,85.88209331651956 4.826878388845879,50.883423702556165 27.151162790697672,45.76744186046512 77.74733096085409,79.49822064056941" style="fill:rgb(71, 28, 75, 0.2965323893869424); stroke:rgb(47, 34, 66); stroke-width:1" />
	<polygon points="175.66279069767444,124.47674418604653 165.01063829787236,111.45744680851065 170.0897435897436,91.14102564102565 202.5548780487805,76.38414634146342 292.0937499999995,107.84375000000027" style="fill:rgb(71, 28, 75, 0.045962969511838925); stroke:rgb(47, 34, 66); stroke-width:1" />
	<polygon points="100.00000000014187,-893.399999996362 172.7671353251318,-34.74780316344453 166.5232558139535,10.000000000000009 165.1779252110977,14.132086851628461 154.74460431654677,26.24820143884892 132.61702127659575,18.872340425531913 121.1093749999983,-10.718750000000709 97.5000000000001,-79.73076923076924 97.50000000007996,-817.900000001958" style="fill:rgb(71, 28, 75, 0.3839166779296905); stroke:rgb(47, 34, 66); stroke-width:1" />
	<polygon points="12.499999999999998,13.499999999999995 -15.759259259259126,37.72222222222215 12.500000000000114,-30.100000000000218" style="fill:rgb(71, 28, 75, 0.2020660071939045); stroke:rgb(47, 34, 66); stroke-width:1" />
	<polygon points="46.79292929292928,160.57070707070707 50.46350364963504,175.77737226277372 47.60526315789477,177.92105263157896 21.32608695652174,193.32608695652175 13.83333333333338,185.83333333333331 32.93478260869565,161.95652173913044" style="fill:rgb(71, 28, 75, 0.27912379400080983); stroke:rgb(47, 34, 66); stroke-width:1" />
	<polygon points="170.0897435897436,91.14102564102565 202.5548780487805,76.38414634146342 292.0937499999995,107.84375000000027 175.66279069767444,124.47674418604653 165.01063829787236,111.45744680851065" style="fill:rgb(71, 28, 75, 0.48366058150485264); stroke:rgb(47, 34, 66); stroke-width:1" />
	<polygon points="141.20609318996415,107.31600955794504 158.70353982300884,109.11061946902656 165.01063829787236,111.45744680851065 175.66279069767444,124.47674418604653 162.64102564102564,150.03798670465335 155.25352112676057,153.86854460093898 127.0915119363395,138.84880636604774 131.19747899159663,115.23949579831934" style="fill:rgb(71, 28, 75, 0.3701007613130137); stroke:rgb(47, 34, 66); stroke-width:1" />
	<polygon points="97.5000000000001,-79.73076923076924 78.17661691542285,7.967661691542287 41.411392405063296,4.2911392405063316 33.49999999999869,-59.00000000000243 33.49999999999721,-126.70000000002291 97.50000000007996,-817.900000001958" style="fill:rgb(71, 28, 75, 0.01653684022228047); stroke:rgb(47, 34, 66); stroke-width:1" />
	<polygon points="165.1779252110977,14.132086851628461 206.38683602771366,31.100461893764425 181.64112291350528,48.31487101669195 159.86774193548388,45.11290322580645 158.33157894736843,42.55263157894737 154.74460431654677,26.24820143884892" style="fill:rgb(71, 28, 75, 0.29231970682681624); stroke:rgb(47, 34, 66); stroke-width:1" />
	<polygon points="50.46350364963504,175.77737226277372 64.8939393939394,179.0757575757576 73.54545454545456,213.6818181818182 71.9999999999883,275.5000000000319 47.60526315789477,177.92105263157896" style="fill:rgb(71, 28, 75, 0.4057996124874376); stroke:rgb(47, 34, 66); stroke-width:1" />
	<polygon points="100.78037383177569,181.52803738317755 91.81818181818181,186.27272727272725 66.59090909090912,177.8636363636364 79.66508538899431,162.0370018975332" style="fill:rgb(71, 28, 75, 0.44023695542019853); stroke:rgb(47, 34, 66); stroke-width:1" />
	<polygon points="27.151162790697672,45.76744186046512 77.74733096085409,79.49822064056941 74.76475195822455,83.21122715404701 30.695460277427493,85.88209331651956 4.826878388845879,50.883423702556165" style="fill:rgb(71, 28, 75, 0.011958141166814484); stroke:rgb(47, 34, 66); stroke-width:1" />
	<polygon points="13.83333333333338,185.83333333333331 -47.39403973509937,137.7261116367077 -13.356783919597614,131.0954773869344 32.93478260869565,161.95652173913044" style="fill:rgb(71, 28, 75, 0.4155609539565436); stroke:rgb(47, 34, 66); stroke-width:1" />
	<polygon points="102.12499999999861,88.9999999999991 120.1470588235294,113.02941176470588 109.98076923076921,120.42307692307692" style="fill:rgb(71, 28, 75, 0.1268244822757919); stroke:rgb(47, 34, 66); stroke-width:1" />
	<polygon points="159.86774193548388,45.11290322580645 157.09023066485753,60.98439620081411 120.43617021276599,77.47872340425532 91.9776119402985,67.99253731343283 92.67259786476872,63.44839857651241 92.80894308943081,63.02845528455285 158.33157894736843,42.55263157894737" style="fill:rgb(71, 28, 75, 0.4922580863746448); stroke:rgb(47, 34, 66); stroke-width:1" />
	<polygon points="127.0915119363395,138.84880636604774 131.19747899159663,115.23949579831934 141.20609318996415,107.31600955794504 158.70353982300884,109.11061946902656 165.01063829787236,111.45744680851065 175.66279069767444,124.47674418604653 162.64102564102564,150.03798670465335 155.25352112676057,153.86854460093898" style="fill:rgb(71, 28, 75, 0.12033511636301747); stroke:rgb(47, 34, 66); stroke-width:1" />
	<polygon points="165.1779252110977,14.132086851628461 166.5232558139535,10.000000000000009 203.53124999999997,10.0 223.90690505548713,27.158446362515416 206.38683602771366,31.100461893764425" style="fill:rgb(71, 28, 75, 0.15163526686674145); stroke:rgb(47, 34, 66); stroke-width:1" />
	<polygon points="91.81818181818181,186.27272727272725 66.59090909090912,177.8636363636364 79.66508538899431,162.0370018975332 100.78037383177569,181.52803738317755" style="fill:rgb(71, 28, 75, 0.30458446063062916); stroke:rgb(47, 34, 66); stroke-width:1" />
	<polygon points="93.20454545454197,45.09090909090804 94.59405940594061,48.74752475247523 92.80894308943081,63.02845528455285 92.67259786476872,63.44839857651241 41.662790697674424,29.44186046511628 42.291225416036305,27.608925869894094 78.12946428571429,8.910714285714288" style="fill:rgb(71, 28, 75, 0.12040962947646211); stroke:rgb(47, 34, 66); stroke-width:1" />
	<polygon points="37.31260096930533,139.0589660743134 69.63984168865436,119.30343007915567 76.6923076923077,144.69230769230768 47.50515463917527,153.4484536082474" style="fill:rgb(71, 28, 75, 0.256592533932818); stroke:rgb(47, 34, 66); stroke-width:1" />
	<polygon points="159.40577507598783,66.50607902735564 150.1551724137931,83.46551724137932 123.94186046511625,80.84418604651161 120.43617021276599,77.47872340425532 157.09023066485753,60.98439620081411" style="fill:rgb(71, 28, 75, 0.02277830767109551); stroke:rgb(47, 34, 66); stroke-width:1" />
	<polygon points="121.1093749999983,-10.718750000000709 93.20454545454197,45.09090909090804 78.12946428571429,8.910714285714288 78.17661691542285,7.967661691542287 97.5000000000001,-79.73076923076924" style="fill:rgb(71, 28, 75, 0.132688506658109); stroke:rgb(47, 34, 66); stroke-width:1" />
	<polygon points="202.5548780487805,76.38414634146342 170.0897435897436,91.14102564102565 167.23949579831933,74.75210084033613 192.8103448275862,69.63793103448276" style="fill:rgb(71, 28, 75, 0.44232679389182167); stroke:rgb(47, 34, 66); stroke-width:1" />
	<polygon points="105.87837837837837,127.3108108108108 106.53333333333333,124.56 109.98076923076921,120.42307692307692 120.1470588235294,113.02941176470588 131.19747899159663,115.23949579831934 127.0915119363395,138.84880636604774 125.90740740740742,139.09259259259258" style="fill:rgb(71, 28, 75, 0.485157676290013); stroke:rgb(47, 34, 66); stroke-width:1" />
	<polygon points="69.62734082397004,102.1554307116105 70.53973509933775,114.01655629139074 69.63984168865436,119.30343007915567 37.31260096930533,139.0589660743134 3.6322418136020094,126.54911838790935 6.03608247422687,124.4123711340206" style="fill:rgb(71, 28, 75, 0.45062948066348163); stroke:rgb(47, 34, 66); stroke-width:1" />
	<polygon points="33.49999999999869,-59.00000000000243 24.360465116279073,9.546511627906975 12.499999999999998,13.499999999999995 12.500000000000114,-30.100000000000218 33.49999999999721,-126.70000000002291" style="fill:rgb(71, 28, 75, 0.14118342217817786); stroke:rgb(47, 34, 66); stroke-width:1" />
	<polygon points="106.53333333333333,124.56 80.54195011337866,77.77551020408158 90.27764127764128,70.04422604422606 102.12499999999861,88.9999999999991 109.98076923076921,120.42307692307692" style="fill:rgb(71, 28, 75, 0.38798130528423985); stroke:rgb(47, 34, 66); stroke-width:1" />
	<polygon points="92.80894308943081,63.02845528455285 92.67259786476872,63.44839857651241 41.662790697674424,29.44186046511628 42.291225416036305,27.608925869894094 78.12946428571429,8.910714285714288 93.20454545454197,45.09090909090804 94.59405940594061,48.74752475247523" style="fill:rgb(71, 28, 75, 0.3918900010452955); stroke:rgb(47, 34, 66); stroke-width:1" />
	<polygon points="170.0897435897436,91.14102564102565 165.01063829787236,111.45744680851065 158.70353982300884,109.11061946902656 150.1551724137931,83.46551724137932 159.40577507598783,66.50607902735564 167.23949579831933,74.75210084033613" style="fill:rgb(71, 28, 75, 0.21748968332553004); stroke:rgb(47, 34, 66); stroke-width:1" />
	<polygon points="78.17661691542285,7.967661691542287 97.5000000000001,-79.73076923076924 121.1093749999983,-10.718750000000709 93.20454545454197,45.09090909090804 78.12946428571429,8.910714285714288" style="fill:rgb(71, 28, 75, 0.24645350719921189); stroke:rgb(47, 34, 66); stroke-width:1" />
	<polygon points="202.5548780487805,76.38414634146342 292.0937499999995,107.84375000000027 175.66279069767444,124.47674418604653 165.01063829787236,111.45744680851065 170.0897435897436,91.14102564102565" style="fill:rgb(71, 28, 75, 0.06248809724585386); stroke:rgb(47, 34, 66); stroke-width:1" />
	<polygon points="73.54545454545456,213.6818181818182 64.8939393939394,179.0757575757576 66.59090909090912,177.8636363636364 91.81818181818181,186.27272727272725" style="fill:rgb(71, 28, 75, 0.36639127060251486); stroke:rgb(47, 34, 66); stroke-width:1" />
	<polygon points="132.61702127659575,18.872340425531913 94.59405940594061,48.74752475247523 93.20454545454197,45.09090909090804 121.1093749999983,-10.718750000000709" style="fill:rgb(71, 28, 75, 0.12370929498872907); stroke:rgb(47, 34, 66); stroke-width:1" />
	<polygon points="42.291225416036305,27.608925869894094 78.12946428571429,8.910714285714288 93.20454545454197,45.09090909090804 94.59405940594061,48.74752475247523 92.80894308943081,63.02845528455285 92.67259786476872,63.44839857651241 41.662790697674424,29.44186046511628" style="fill:rgb(71, 28, 75, 0.15215116468535939); stroke:rgb(47, 34, 66); stroke-width:1" />
	<polygon points="24.360465116279073,9.546511627906975 33.49999999999869,-59.00000000000243 41.411392405063296,4.2911392405063316 35.995702005730664,14.445558739255015" style="fill:rgb(71, 28, 75, 0.24906078959834643); stroke:rgb(47, 34, 66); stroke-width:1" />
	<polygon points="-296.80555555556816,100.00000000000028 -47.39403973509937,137.7261116367077 13.83333333333338,185.83333333333331 21.32608695652174,193.32608695652175 71.9999999999719,502.99999999965337 99.99999999998782,811.0000000002074 99.99999999998782,1021.0000000002074" style="fill:rgb(71, 28, 75, 0.42016780545523696); stroke:rgb(47, 34, 66); stroke-width:1" />
	<polygon points="50.46350364963504,175.77737226277372 47.60526315789477,177.92105263157896 21.32608695652174,193.32608695652175 13.83333333333338,185.83333333333331 32.93478260869565,161.95652173913044 46.79292929292928,160.57070707070707" style="fill:rgb(71, 28, 75, 0.17278968659094424); stroke:rgb(47, 34, 66); stroke-width:1" />
	<polygon points="12.500000000000114,-30.100000000000218 12.499999999999998,13.499999999999995 -15.759259259259126,37.72222222222215" style="fill:rgb(71, 28, 75, 0.09541447270728687); stroke:rgb(47, 34, 66); stroke-width:1" />
	<polygon points="74.76475195822455,83.21122715404701 77.74733096085409,79.49822064056941 80.54195011337866,77.77551020408158 106.53333333333333,124.56 105.87837837837837,127.3108108108108 104.31818181818183,128.09090909090912 70.53973509933775,114.01655629139074 69.62734082397004,102.1554307116105" style="fill:rgb(71, 28, 75, 0.27835096605587595); stroke:rgb(47, 34, 66); stroke-width:1" />
	<polygon points="77.74733096085409,79.49822064056941 74.76475195822455,83.21122715404701 30.695460277427493,85.88209331651956 4.826878388845879,50.883423702556165 27.151162790697672,45.76744186046512" style="fill:rgb(71, 28, 75, 0.32244815361681933); stroke:rgb(47, 34, 66); stroke-width:1" />
	<polygon points="90.27764127764128,70.04422604422606 102.12499999999861,88.9999999999991 109.98076923076921,120.42307692307692 106.53333333333333,124.56 80.54195011337866,77.77551020408158" style="fill:rgb(71, 28, 75, 0.042639843908727826); stroke:rgb(47, 34, 66); stroke-width:1" />
	<polygon points="180.91666666666674,202.12499999999997 144.07245337159262,267.43974175035896 130.6945945945946,193.34698544698543 152.32500000000027,159.23749999999995" style="fill:rgb(71, 28, 75, 0.4476134177094063); stroke:rgb(47, 34, 66); stroke-width:1" />
	<polygon points="162.64102564102564,150.03798670465335 155.25352112676057,153.86854460093898 127.0915119363395,138.84880636604774 131.19747899159663,115.23949579831934 141.20609318996415,107.31600955794504 158.70353982300884,109.11061946902656 165.01063829787236,111.45744680851065 175.66279069767444,124.47674418604653" style="fill:rgb(71, 28, 75, 0.37322574804342695); stroke:rgb(47, 34, 66); stroke-width:1" />
	<polygon points="162.64102564102564,150.03798670465335 175.66279069767444,124.47674418604653 292.0937499999995,107.84375000000027 494.23619631905694,115.92944785276697 195.41221374045801,180.38167938931298" style="fill:rgb(71, 28, 75, 0.28212372851008466); stroke:rgb(47, 34, 66); stroke-width:1" />
	<polygon points="78.17661691542285,7.967661691542287 41.411392405063296,4.2911392405063316 33.49999999999869,-59.00000000000243 33.49999999999721,-126.70000000002291 97.50000000007996,-817.900000001958 97.5000000000001,-79.73076923076924" style="fill:rgb(71, 28, 75, 0.3275287728036626); stroke:rgb(47, 34, 66); stroke-width:1" />
	<polygon points="47.50515463917527,153.4484536082474 76.6923076923077,144.69230769230768 81.76829268292683,149.7682926829268 79.66508538899431,162.0370018975332 66.59090909090912,177.8636363636364 64.8939393939394,179.0757575757576 50.46350364963504,175.77737226277372 46.79292929292928,160.57070707070707" style="fill:rgb(71, 28, 75, 0.06871887059085552); stroke:rgb(47, 34, 66); stroke-width:1" />
	<polygon points="30.695460277427493,85.88209331651956 6.03608247422687,124.4123711340206 3.6322418136020094,126.54911838790935 -13.356783919597614,131.0954773869344 -47.39403973509937,137.7261116367077 -296.80555555556816,100.00000000000028 -22.75287356321836,45.79177718832894 4.826878388845879,50.883423702556165" style="fill:rgb(71, 28, 75, 0.4313858614786264); stroke:rgb(47, 34, 66); stroke-width:1" />
	<polygon points="78.17661691542285,7.967661691542287 78.12946428571429,8.910714285714288 42.291225416036305,27.608925869894094 35.995702005730664,14.445558739255015 41.411392405063296,4.2911392405063316" style="fill:rgb(71, 28, 75, 0.15082781675512918); stroke:rgb(47, 34, 66); stroke-width:1" />
	<polygon points="91.9776119402985,67.99253731343283 120.43617021276599,77.47872340425532 123.94186046511625,80.84418604651161 141.20609318996415,107.31600955794504 131.19747899159663,115.23949579831934 120.1470588235294,113.02941176470588 102.12499999999861,88.9999999999991 90.27764127764128,70.04422604422606" style="fill:rgb(71, 28, 75, 0.06986621890560957); stroke:rgb(47, 34, 66); stroke-width:1" />
	<polygon points="24.360465116279073,9.546511627906975 12.499999999999998,13.499999999999995 12.500000000000114,-30.100000000000218 33.49999999999721,-126.70000000002291 33.49999999999869,-59.00000000000243" style="fill:rgb(71, 28, 75, 0.12225510681628099); stroke:rgb(47, 34, 66); stroke-width:1" />
	<polygon points="24.360465116279073,9.546511627906975 35.995702005730664,14.445558739255015 42.291225416036305,27.608925869894094 41.662790697674424,29.44186046511628 27.151162790697672,45.76744186046512 4.826878388845879,50.883423702556165 -22.75287356321836,45.79177718832894 -15.759259259259126,37.72222222222215 12.499999999999998,13.499999999999995" style="fill:rgb(71, 28, 75, 0.29984064769137486); stroke:rgb(47, 34, 66); stroke-width:1" />
	<polygon points="30.695460277427493,85.88209331651956 4.826878388845879,50.883423702556165 27.151162790697672,45.76744186046512 77.74733096085409,79.49822064056941 74.76475195822455,83.21122715404701" style="fill:rgb(71, 28, 75, 0.44090621816804243); stroke:rgb(47, 34, 66); stroke-width:1" />
	<polygon points="92.80894308943081,63.02845528455285 158.33157894736843,42.55263157894737 159.86774193548388,45.11290322580645 157.09023066485753,60.98439620081411 120.43617021276599,77.47872340425532 91.9776119402985,67.99253731343283 92.67259786476872,63.44839857651241" style="fill:rgb(71, 28, 75, 0.31036748331159364); stroke:rgb(47, 34, 66); stroke-width:1" />
	<polygon points="106.53333333333333,124.56 105.87837837837837,127.3108108108108 104.31818181818183,128.09090909090912 70.53973509933775,114.01655629139074 69.62734082397004,102.1554307116105 74.76475195822455,83.21122715404701 77.74733096085409,79.49822064056941 80.54195011337866,77.77551020408158" style="fill:rgb(71, 28, 75, 0.1753183828837348); stroke:rgb(47, 34, 66); stroke-width:1" />
	<polygon points="180.91666666666674,202.12499999999997 152.32500000000027,159.23749999999995 155.25352112676057,153.86854460093898 162.64102564102564,150.03798670465335 195.41221374045801,180.38167938931298" style="fill:rgb(71, 28, 75, 0.044841770609476694); stroke:rgb(47, 34, 66); stroke-width:1" />
	<polygon points="166.5232558139535,10.000000000000009 203.53124999999997,10.0 223.90690505548713,27.158446362515416 206.38683602771366,31.100461893764425 165.1779252110977,14.132086851628461" style="fill:rgb(71, 28, 75, 0.36071555555285717); stroke:rgb(47, 34, 66); stroke-width:1" />
	<polygon points="102.12499999999861,88.9999999999991 90.27764127764128,70.04422604422606 91.9776119402985,67.99253731343283 120.43617021276599,77.47872340425532 123.94186046511625,80.84418604651161 141.20609318996415,107.31600955794504 131.19747899159663,115.23949579831934 120.1470588235294,113.02941176470588" style="fill:rgb(71, 28, 75, 0.23920767188002984); stroke:rgb(47, 34, 66); stroke-width:1" />
	<polygon points="-15.759259259259126,37.72222222222215 12.499999999999998,13.499999999999995 24.360465116279073,9.546511627906975 35.995702005730664,14.445558739255015 42.291225416036305,27.608925869894094 41.662790697674424,29.44186046511628 27.151162790697672,45.76744186046512 4.826878388845879,50.883423702556165 -22.75287356321836,45.79177718832894" style="fill:rgb(71, 28, 75, 0.06352544950484523); stroke:rgb(47, 34, 66); stroke-width:1" />
	<polygon points="47.60526315789477,177.92105263157896 71.9999999999883,275.5000000000319 71.9999999999719,502.99999999965337 21.32608695652174,193.32608695652175" style="fill:rgb(71, 28, 75, 0.1555854653178984); stroke:rgb(47, 34, 66); stroke-width:1" />
	<polygon points="102.12499999999861,88.9999999999991 109.98076923076921,120.42307692307692 106.53333333333333,124.56 80.54195011337866,77.77551020408158 90.27764127764128,70.04422604422606" style="fill:rgb(71, 28, 75, 0.3148523688302876); stroke:rgb(47, 34, 66); stroke-width:1" />
	<polygon points="71.9999999999883,275.5000000000319 71.9999999999719,502.99999999965337 21.32608695652174,193.32608695652175 47.60526315789477,177.92105263157896" style="fill:rgb(71, 28, 75, 0.0631817412943505); stroke:rgb(47, 34, 66); stroke-width:1" />
	<polygon points="76.6923076923077,144.69230769230768 81.76829268292683,149.7682926829268 79.66508538899431,162.0370018975332 66.59090909090912,177.8636363636364 64.8939393939394,179.0757575757576 50.46350364963504,175.77737226277372 46.79292929292928,160.57070707070707 47.50515463917527,153.4484536082474" style="fill:rgb(71, 28, 75, 0.295920167223468); stroke:rgb(47, 34, 66); stroke-width:1" />
	<polygon points="166.5232558139535,10.000000000000009 172.7671353251318,-34.74780316344453 203.53124999999997,10.0" style="fill:rgb(71, 28, 75, 0.33031842965794983); stroke:rgb(47, 34, 66); stroke-width:1" />
	<polygon points="91.9776119402985,67.99253731343283 92.67259786476872,63.44839857651241 92.80894308943081,63.02845528455285 158.33157894736843,42.55263157894737 159.86774193548388,45.11290322580645 157.09023066485753,60.98439620081411 120.43617021276599,77.47872340425532" style="fill:rgb(71, 28, 75, 0.3760809594803158); stroke:rgb(47, 34, 66); stroke-width:1" />
	<polygon points="144.07245337159262,267.43974175035896 130.6945945945946,193.34698544698543 152.32500000000027,159.23749999999995 180.91666666666674,202.12499999999997" style="fill:rgb(71, 28, 75, 0.13032264953542871); stroke:rgb(47, 34, 66); stroke-width:1" />
	<polygon points="91.6254752851711,148.39923954372625 81.76829268292683,149.7682926829268 76.6923076923077,144.69230769230768 69.63984168865436,119.30343007915567 70.53973509933775,114.01655629139074 104.31818181818183,128.09090909090912" style="fill:rgb(71, 28, 75, 0.36082716181046676); stroke:rgb(47, 34, 66); stroke-width:1" />
	<polygon points="-47.39403973509937,137.7261116367077 -296.80555555556816,100.00000000000028 -22.75287356321836,45.79177718832894 4.826878388845879,50.883423702556165 30.695460277427493,85.88209331651956 6.03608247422687,124.4123711340206 3.6322418136020094,126.54911838790935 -13.356783919597614,131.0954773869344" style="fill:rgb(71, 28, 75, 0.2899140717209579); stroke:rgb(47, 34, 66); stroke-width:1" />
	<polygon points="141.20609318996415,107.31600955794504 123.94186046511625,80.84418604651161 150.1551724137931,83.46551724137932 158.70353982300884,109.11061946902656" style="fill:rgb(71, 28, 75, 0.053080576120382084); stroke:rgb(47, 34, 66); stroke-width:1" />
	<polygon points="33.49999999999721,-126.70000000002291 33.49999999999869,-59.00000000000243 24.360465116279073,9.546511627906975 12.499999999999998,13.499999999999995 12.500000000000114,-30.100000000000218" style="fill:rgb(71, 28, 75, 0.337440582227585); stroke:rgb(47, 34, 66); stroke-width:1" />
	<polygon points="120.43617021276599,77.47872340425532 157.09023066485753,60.98439620081411 159.40577507598783,66.50607902735564 150.1551724137931,83.46551724137932 123.94186046511625,80.84418604651161" style="fill:rgb(71, 28, 75, 0.40088401335230683); stroke:rgb(47, 34, 66); stroke-width:1" />
	<polygon points="91.9776119402985,67.99253731343283 90.27764127764128,70.04422604422606 80.54195011337866,77.77551020408158 77.74733096085409,79.49822064056941 27.151162790697672,45.76744186046512 41.662790697674424,29.44186046511628 92.67259786476872,63.44839857651241" style="fill:rgb(71, 28, 75, 0.43140191741169764); stroke:rgb(47, 34, 66); stroke-width:1" />
	<polygon points="66.59090909090912,177.8636363636364 91.81818181818181,186.27272727272725 73.54545454545456,213.6818181818182 64.8939393939394,179.0757575757576" style="fill:rgb(71, 28, 75, 0.17907265958286273); stroke:rgb(47, 34, 66); stroke-width:1" />
	<polygon points="120.1470588235294,113.02941176470588 102.12499999999861,88.9999999999991 90.27764127764128,70.04422604422606 91.9776119402985,67.99253731343283 120.43617021276599,77.47872340425532 123.94186046511625,80.84418604651161 141.20609318996415,107.31600955794504 131.19747899159663,115.23949579831934" style="fill:rgb(71, 28, 75, 0.17691858325776927); stroke:rgb(47, 34, 66); stroke-width:1" />
	<polygon points="181.64112291350528,48.31487101669195 159.86774193548388,45.11290322580645 158.33157894736843,42.55263157894737 154.74460431654677,26.24820143884892 165.1779252110977,14.132086851628461 206.38683602771366,31.100461893764425" style="fill:rgb(71, 28, 75, 0.4192314615920588); stroke:rgb(47, 34, 66); stroke-width:1" />
	<polygon points="100.00000000014187,-893.399999996362 100.00000000014187,-1103.399999996362 837.8571428579834,99.99999999982884 223.90690505548713,27.158446362515416 203.53124999999997,10.0 172.7671353251318,-34.74780316344453" style="fill:rgb(71, 28, 75, 0.4135440552751483); stroke:rgb(47, 34, 66); stroke-width:1" />
	<polygon points="21.32608695652174,193.32608695652175 47.60526315789477,177.92105263157896 71.9999999999883,275.5000000000319 71.9999999999719,502.99999999965337" style="fill:rgb(71, 28, 75, 0.3955002222514459); stroke:rgb(47, 34, 66); stroke-width:1" />
	<polygon points="109.17567567567568,155.82432432432432 117.99077490774908,183.24907749077497 100.78037383177569,181.52803738317755 79.66508538899431,162.0370018975332 81.76829268292683,149.7682926829268 91.6254752851711,148.39923954372625" style="fill:rgb(71, 28, 75, 0.4787560289814912); stroke:rgb(47, 34, 66); stroke-width:1" />
	<polygon points="50.46350364963504,175.77737226277372 46.79292929292928,160.57070707070707 47.50515463917527,153.4484536082474 76.6923076923077,144.69230769230768 81.76829268292683,149.7682926829268 79.66508538899431,162.0370018975332 66.59090909090912,177.8636363636364 64.8939393939394,179.0757575757576" style="fill:rgb(71, 28, 75, 0.22756309573058808); stroke:rgb(47, 34, 66); stroke-width:1" />
	<polygon points="-47.39403973509937,137.7261116367077 -13.356783919597614,131.0954773869344 32.93478260869565,161.95652173913044 13.83333333333338,185.83333333333331" style="fill:rgb(71, 28, 75, 0.2566006969577566); stroke:rgb(47, 34, 66); stroke-width:1" />
	<polygon points="6.03608247422687,124.4123711340206 69.62734082397004,102.1554307116105 70.53973509933775,114.01655629139074 69.63984168865436,119.30343007915567 37.31260096930533,139.0589660743134 3.6322418136020094,126.54911838790935" style="fill:rgb(71, 28, 75, 0.1552894220645562); stroke:rgb(47, 34, 66); stroke-width:1" />
	<polygon points="91.81818181818181,186.27272727272725 73.54545454545456,213.6818181818182 64.8939393939394,179.0757575757576 66.59090909090912,177.8636363636364" style="fill:rgb(71, 28, 75, 0.30346660778697354); stroke:rgb(47, 34, 66); stroke-width:1" />
	<polygon points="292.0937499999995,107.84375000000027 202.5548780487805,76.38414634146342 192.8103448275862,69.63793103448276 181.64112291350528,48.31487101669195 206.38683602771366,31.100461893764425 223.90690505548713,27.158446362515416 837.8571428579834,99.99999999982884 494.23619631905694,115.92944785276697" style="fill:rgb(71, 28, 75, 0.4653783073176649); stroke:rgb(47, 34, 66); stroke-width:1" />
	<polygon points="131.19747899159663,115.23949579831934 141.20609318996415,107.31600955794504 158.70353982300884,109.11061946902656 165.01063829787236,111.45744680851065 175.66279069767444,124.47674418604653 162.64102564102564,150.03798670465335 155.25352112676057,153.86854460093898 127.0915119363395,138.84880636604774" style="fill:rgb(71, 28, 75, 0.43335011778518634); stroke:rgb(47, 34, 66); stroke-width:1" />
	<polygon points="4.826878388845879,50.883423702556165 30.695460277427493,85.88209331651956 6.03608247422687,124.4123711340206 3.6322418136020094,126.54911838790935 -13.356783919597614,131.0954773869344 -47.39403973509937,137.7261116367077 -296.80555555556816,100.00000000000028 -22.75287356321836,45.79177718832894" style="fill:rgb(71, 28, 75, 0.31961813194665256); stroke:rgb(47, 34, 66); stroke-width:1" />
	<polygon points="158.33157894736843,42.55263157894737 92.80894308943081,63.02845528455285 94.59405940594061,48.74752475247523 132.61702127659575,18.872340425531913 154.74460431654677,26.24820143884892" style="fill:rgb(71, 28, 75, 0.3451711588339679); stroke:rgb(47, 34, 66); stroke-width:1" />
	<polygon points="71.9999999999719,502.99999999965337 71.9999999999883,275.5000000000319 73.54545454545456,213.6818181818182 91.81818181818181,186.27272727272725 100.78037383177569,181.52803738317755 117.99077490774908,183.24907749077497 130.6945945945946,193.34698544698543 144.07245337159262,267.43974175035896 99.99999999998782,811.0000000002074" style="fill:rgb(71, 28, 75, 0.297360261419242); stroke:rgb(47, 34, 66); stroke-width:1" />
	<polygon points="141.20609318996415,107.31600955794504 131.19747899159663,115.23949579831934 120.1470588235294,113.02941176470588 102.12499999999861,88.9999999999991 90.27764127764128,70.04422604422606 91.9776119402985,67.99253731343283 120.43617021276599,77.47872340425532 123.94186046511625,80.84418604651161" style="fill:rgb(71, 28, 75, 0.02990484892635986); stroke:rgb(47, 34, 66); stroke-width:1" />
	<polygon points="109.17567567567568,155.82432432432432 125.90740740740742,139.09259259259258 127.0915119363395,138.84880636604774 155.25352112676057,153.86854460093898 152.32500000000027,159.23749999999995 130.6945945945946,193.34698544698543 117.99077490774908,183.24907749077497" style="fill:rgb(71, 28, 75, 0.4987233646055307); stroke:rgb(47, 34, 66); stroke-width:1" />
	<polygon points="73.54545454545456,213.6818181818182 71.9999999999883,275.5000000000319 47.60526315789477,177.92105263157896 50.46350364963504,175.77737226277372 64.8939393939394,179.0757575757576" style="fill:rgb(71, 28, 75, 0.27581846586669645); stroke:rgb(47, 34, 66); stroke-width:1" />
	<polygon points="37.31260096930533,139.0589660743134 3.6322418136020094,126.54911838790935 6.03608247422687,124.4123711340206 69.62734082397004,102.1554307116105 70.53973509933775,114.01655629139074 69.63984168865436,119.30343007915567" style="fill:rgb(71, 28, 75, 0.41444640178154235); stroke:rgb(47, 34, 66); stroke-width:1" />
	<polygon points="837.8571428579834,99.99999999982884 223.90690505548713,27.158446362515416 203.53124999999997,10.0 172.7671353251318,-34.74780316344453 100.00000000014187,-893.399999996362 100.00000000014187,-1103.399999996362" style="fill:rgb(71, 28, 75, 0.3889854240898892); stroke:rgb(47, 34, 66); stroke-width:1" />
	<polygon points="13.83333333333338,185.83333333333331 32.93478260869565,161.95652173913044 46.79292929292928,160.57070707070707 50.46350364963504,175.77737226277372 47.60526315789477,177.92105263157896 21.32608695652174,193.32608695652175" style="fill:rgb(71, 28, 75, 0.14910444999980071); stroke:rgb(47, 34, 66); stroke-width:1" />
	<polygon points="125.90740740740742,139.09259259259258 105.87837837837837,127.3108108108108 106.53333333333333,124.56 109.98076923076921,120.42307692307692 120.1470588235294,113.02941176470588 131.19747899159663,115.23949579831934 127.0915119363395,138.84880636604774" style="fill:rgb(71, 28, 75, 0.16865330540274254); stroke:rgb(47, 34, 66); stroke-width:1" />
	<polygon points="-15.759259259259126,37.72222222222215 12.500000000000114,-30.100000000000218 12.499999999999998,13.499999999999995" style="fill:rgb(71, 28, 75, 0.12849372485729876); stroke:rgb(47, 34, 66); stroke-width:1" />
	<polygon points="79.66508538899431,162.0370018975332 100.78037383177569,181.52803738317755 91.81818181818181,186.27272727272725 66.59090909090912,177.8636363636364" style="fill:rgb(71, 28, 75, 0.03267226194372558); stroke:rgb(47, 34, 66); stroke-width:1" />
	<polygon points="159.86774193548388,45.11290322580645 181.64112291350528,48.31487101669195 192.8103448275862,69.63793103448276 167.23949579831933,74.75210084033613 159.40577507598783,66.50607902735564 157.09023066485753,60.98439620081411" style="fill:rgb(71, 28, 75, 0.4489693303987092); stroke:rgb(47, 34, 66); stroke-width:1" />
	<polygon points="117.99077490774908,183.24907749077497 109.17567567567568,155.82432432432432 125.90740740740742,139.09259259259258 127.0915119363395,138.84880636604774 155.25352112676057,153.86854460093898 152.32500000000027,159.23749999999995 130.6945945945946,193.34698544698543" style="fill:rgb(71, 28, 75, 0.19400010992420158); stroke:rgb(47, 34, 66); stroke-width:1" />
	<polygon points="159.40577507598783,66.50607902735564 167.23949579831933,74.75210084033613 170.0897435897436,91.14102564102565 165.01063829787236,111.45744680851065 158.70353982300884,109.11061946902656 150.1551724137931,83.46551724137932" style="fill:rgb(71, 28, 75, 0.2922746916808183); stroke:rgb(47, 34, 66); stroke-width:1" />
	<polygon points="223.90690505548713,27.158446362515416 203.53124999999997,10.0 172.7671353251318,-34.74780316344453 100.00000000014187,-893.399999996362 100.00000000014187,-1103.399999996362 837.8571428579834,99.99999999982884" style="fill:rgb(71, 28, 75, 0.14862925580617625); stroke:rgb(47, 34, 66); stroke-width:1" />
	<polygon points="71.9999999999883,275.5000000000319 47.60526315789477,177.92105263157896 50.46350364963504,175.77737226277372 64.8939393939394,179.0757575757576 73.54545454545456,213.6818181818182" style="fill:rgb(71, 28, 75, 0.3887223753632148); stroke:rgb(47, 34, 66); stroke-width:1" />
	<polygon points="109.17567567567568,155.82432432432432 91.6254752851711,148.39923954372625 104.31818181818183,128.09090909090912 105.87837837837837,127.3108108108108 125.90740740740742,139.09259259259258" style="fill:rgb(71, 28, 75, 0.45669111700083853); stroke:rgb(47, 34, 66); stroke-width:1" />
	<polygon points="120.43617021276599,77.47872340425532 91.9776119402985,67.99253731343283 92.67259786476872,63.44839857651241 92.80894308943081,63.02845528455285 158.33157894736843,42.55263157894737 159.86774193548388,45.11290322580645 157.09023066485753,60.98439620081411" style="fill:rgb(71, 28, 75, 0.18800702775254774); stroke:rgb(47, 34, 66); stroke-width:1" />
	<polygon points="166.5232558139535,10.000000000000009 165.1779252110977,14.132086851628461 154.74460431654677,26.24820143884892 132.61702127659575,18.872340425531913 121.1093749999983,-10.718750000000709 97.5000000000001,-79.73076923076924 97.50000000007996,-817.900000001958 100.00000000014187,-893.399999996362 172.7671353251318,-34.74780316344453" style="fill:rgb(71, 28, 75, 0.06829726505428141); stroke:rgb(47, 34, 66); stroke-width:1" />
	<polygon points="41.662790697674424,29.44186046511628 92.67259786476872,63.44839857651241 91.9776119402985,67.99253731343283 90.27764127764128,70.04422604422606 80.54195011337866,77.77551020408158 77.74733096085409,79.49822064056941 27.151162790697672,45.76744186046512" style="fill:rgb(71, 28, 75, 0.1773707820274747); stroke:rgb(47, 34, 66); stroke-width:1" />
	<polygon points="144.07245337159262,267.43974175035896 99.99999999998782,811.0000000002074 71.9999999999719,502.99999999965337 71.9999999999883,275.5000000000319 73.54545454545456,213.6818181818182 91.81818181818181,186.27272727272725 100.78037383177569,181.52803738317755 117.99077490774908,183.24907749077497 130.6945945945946,193.34698544698543" style="fill:rgb(71, 28, 75, 0.3084234382523516); stroke:rgb(47, 34, 66); stroke-width:1" />
	<polygon points="494.23619631905694,115.92944785276697 292.0937499999995,107.84375000000027 202.5548780487805,76.38414634146342 192.8103448275862,69.63793103448276 181.64112291350528,48.31487101669195 206.38683602771366,31.100461893764425 223.90690505548713,27.158446362515416 837.8571428579834,99.99999999982884" style="fill:rgb(71, 28, 75, 0.09881499308930541); stroke:rgb(47, 34, 66); stroke-width:1" />
	<polygon points="71.9999999999883,275.5000000000319 73.54545454545456,213.6818181818182 91.81818181818181,186.27272727272725 100.78037383177569,181.52803738317755 117.99077490774908,183.24907749077497 130.6945945945946,193.34698544698543 144.07245337159262,267.43974175035896 99.99999999998782,811.0000000002074 71.9999999999719,502.99999999965337" style="fill:rgb(71, 28, 75, 0.35202590489694885); stroke:rgb(47, 34, 66); stroke-width:1" />
	<polygon points="42.291225416036305,27.608925869894094 35.995702005730664,14.445558739255015 41.411392405063296,4.2911392405063316 78.17661691542285,7.967661691542287 78.12946428571429,8.910714285714288" style="fill:rgb(71, 28, 75, 0.41477798898968526); stroke:rgb(47, 34, 66); stroke-width:1" />
	<polygon points="41.411392405063296,4.2911392405063316 78.17661691542285,7.967661691542287 78.12946428571429,8.910714285714288 42.291225416036305,27.608925869894094 35.995702005730664,14.445558739255015" style="fill:rgb(71, 28, 75, 0.22325141380223829); stroke:rgb(47, 34, 66); stroke-width:1" />
	<polygon points="-22.75287356321836,45.79177718832894 4.826878388845879,50.883423702556165 30.695460277427493,85.88209331651956 6.03608247422687,124.4123711340206 3.6322418136020094,126.54911838790935 -13.356783919597614,131.0954773869344 -47.39403973509937,137.7261116367077 -296.80555555556816,100.00000000000028" style="fill:rgb(71, 28, 75, 0.1338443823435202); stroke:rgb(47, 34, 66); stroke-width:1" />
	<polygon points="104.31818181818183,128.09090909090912 70.53973509933775,114.01655629139074 69.62734082397004,102.1554307116105 74.76475195822455,83.21122715404701 77.74733096085409,79.49822064056941 80.54195011337866,77.77551020408158 106.53333333333333,124.56 105.87837837837837,127.3108108108108" style="fill:rgb(71, 28, 75, 0.3406411483355559); stroke:rgb(47, 34, 66); stroke-width:1" />
	<polygon points="158.70353982300884,109.11061946902656 141.20609318996415,107.31600955794504 123.94186046511625,80.84418604651161 150.1551724137931,83.46551724137932" style="fill:rgb(71, 28, 75, 0.4536109969942706); stroke:rgb(47, 34, 66); stroke-width:1" />
	<polygon points="144.07245337159262,267.43974175035896 180.91666666666674,202.12499999999997 195.41221374045801,180.38167938931298 494.23619631905694,115.92944785276697 837.8571428579834,99.99999999982884 1047.8571428579835,99.99999999982884 99.99999999998782,811.0000000002074" style="fill:rgb(71, 28, 75, 0.10715255800966766); stroke:rgb(47, 34, 66); stroke-width:1" />
	<polygon points="195.41221374045801,180.38167938931298 162.64102564102564,150.03798670465335 175.66279069767444,124.47674418604653 292.0937499999995,107.84375000000027 494.23619631905694,115.92944785276697" style="fill:rgb(71, 28, 75, 0.038404439217524455); stroke:rgb(47, 34, 66); stroke-width:1" />
	<polygon points="70.53973509933775,114.01655629139074 69.62734082397004,102.1554307116105 74.76475195822455,83.21122715404701 77.74733096085409,79.49822064056941 80.54195011337866,77.77551020408158 106.53333333333333,124.56 105.87837837837837,127.3108108108108 104.31818181818183,128.09090909090912" style="fill:rgb(71, 28, 75, 0.4311492700395787); stroke:rgb(47, 34, 66); stroke-width:1" />
	<polygon points="158.70353982300884,109.11061946902656 150.1551724137931,83.46551724137932 159.40577507598783,66.50607902735564 167.23949579831933,74.75210084033613 170.0897435897436,91.14102564102565 165.01063829787236,111.45744680851065" style="fill:rgb(71, 28, 75, 0.14553592817361438); stroke:rgb(47, 34, 66); stroke-width:1" />
	<polygon points="81.76829268292683,149.7682926829268 91.6254752851711,148.39923954372625 109.17567567567568,155.82432432432432 117.99077490774908,183.24907749077497 100.78037383177569,181.52803738317755 79.66508538899431,162.0370018975332" style="fill:rgb(71, 28, 75, 0.031729357052386775); stroke:rgb(47, 34, 66); stroke-width:1" />
	<polygon points="106.53333333333333,124.56 109.98076923076921,120.42307692307692 120.1470588235294,113.02941176470588 131.19747899159663,115.23949579831934 127.0915119363395,138.84880636604774 125.90740740740742,139.09259259259258 105.87837837837837,127.3108108108108" style="fill:rgb(71, 28, 75, 0.48685943607047344); stroke:rgb(47, 34, 66); stroke-width:1" />
	<polygon points="97.50000000007996,-817.900000001958 97.5000000000001,-79.73076923076924 78.17661691542285,7.967661691542287 41.411392405063296,4.2911392405063316 33.49999999999869,-59.00000000000243 33.49999999999721,-126.70000000002291" style="fill:rgb(71, 28, 75, 0.008635934373806997); stroke:rgb(47, 34, 66); stroke-width:1" />
	<polygon points="35.995702005730664,14.445558739255015 41.411392405063296,4.2911392405063316 78.17661691542285,7.967661691542287 78.12946428571429,8.910714285714288 42.291225416036305,27.608925869894094" style="fill:rgb(71, 28, 75, 0.2628474049864751); stroke:rgb(47, 34, 66); stroke-width:1" />
	<polygon points="165.01063829787236,111.45744680851065 170.0897435897436,91.14102564102565 202.5548780487805,76.38414634146342 292.0937499999995,107.84375000000027 175.66279069767444,124.47674418604653" style="fill:rgb(71, 28, 75, 0.14793829859637303); stroke:rgb(47, 34, 66); stroke-width:1" />
	<polygon points="30.695460277427493,85.88209331651956 74.76475195822455,83.21122715404701 69.62734082397004,102.1554307116105 6.03608247422687,124.4123711340206" style="fill:rgb(71, 28, 75, 0.2162033530478547); stroke:rgb(47, 34, 66); stroke-width:1" />
	<polygon points="99.99999999998782,811.0000000002074 144.07245337159262,267.43974175035896 180.91666666666674,202.12499999999997 195.41221374045801,180.38167938931298 494.23619631905694,115.92944785276697 837.8571428579834,99.99999999982884 1047.8571428579835,99.99999999982884" style="fill:rgb(71, 28, 75, 0.4781867196570974); stroke:rgb(47, 34, 66); stroke-width:1" />
	<polygon points="203.53124999999997,10.0 166.5232558139535,10.000000000000009 172.7671353251318,-34.74780316344453" style="fill:rgb(71, 28, 75, 0.1651808063059927); stroke:rgb(47, 34, 66); stroke-width:1" />
	<polygon points="91.6254752851711,148.39923954372625 109.17567567567568,155.82432432432432 117.99077490774908,183.24907749077497 100.78037383177569,181.52803738317755 79.66508538899431,162.0370018975332 81.76829268292683,149.7682926829268" style="fill:rgb(71, 28, 75, 0.15923336757552264); stroke:rgb(47, 34, 66); stroke-width:1" />
	<polygon points="-47.39403973509937,137.7261116367077 13.83333333333338,185.83333333333331 21.32608695652174,193.32608695652175 71.9999999999719,502.99999999965337 99.99999999998782,811.0000000002074 99.99999999998782,1021.0000000002074 -296.80555555556816,100.00000000000028" style="fill:rgb(71, 28, 75, 0.2407672997368432); stroke:rgb(47, 34, 66); stroke-width:1" />
	<polygon points="162.64102564102564,150.03798670465335 195.41221374045801,180.38167938931298 180.91666666666674,202.12499999999997 152.32500000000027,159.23749999999995 155.25352112676057,153.86854460093898" style="fill:rgb(71, 28, 75, 0.366507798893706); stroke:rgb(47, 34, 66); stroke-width:1" />
	<polygon points="150.1551724137931,83.46551724137932 158.70353982300884,109.11061946902656 141.20609318996415,107.31600955794504 123.94186046511625,80.84418604651161" style="fill:rgb(71, 28, 75, 0.004419831847662259); stroke:rgb(47, 34, 66); stroke-width:1" />
	<polygon points="41.411392405063296,4.2911392405063316 35.995702005730664,14.445558739255015 24.360465116279073,9.546511627906975 33.49999999999869,-59.00000000000243" style="fill:rgb(71, 28, 75, 0.24097864011405684); stroke:rgb(47, 34, 66); stroke-width:1" />
	<polygon points="3.6322418136020094,126.54911838790935 37.31260096930533,139.0589660743134 47.50515463917527,153.4484536082474 46.79292929292928,160.57070707070707 32.93478260869565,161.95652173913044 -13.356783919597614,131.0954773869344" style="fill:rgb(71, 28, 75, 0.03912738893875051); stroke:rgb(47, 34, 66); stroke-width:1" />
</svg>